# xmcd
#
# Track frame offsets:
#	150
#	25700
#	38323
#	60386
#	81833
#	99032
#	112085
#	126784
#	152200
#	167388
#
# Disc length: 2454 seconds
#
# Revision: 1
# Processed by: cddbd v1.5.2PL0 Copyright (c) Steve Scherf et al.
# Submitted via: audiograbber 1.83.01
#
DISCID=6609940a
DTITLE=Cole Mitchell - Invictus
DYEAR=2006
DGENRE=Country Rock
TTITLE0=The Curse
TTITLE1=Born to Lose
TTITLE2=Van Gogh's Moon
TTITLE3=Transient Emotions
TTITLE4=Cold Light of Day
TTITLE5=Bye Bye Baby
TTITLE6=Different Disguise
TTITLE7=Shotgun Rider
TTITLE8=Lucretia Borga (I Couldn't Leave You if I Wanted To)
TTITLE9=Painting the Town
EXTD=
EXTT0=
EXTT1=
EXTT2=
EXTT3=
EXTT4=
EXTT5=
EXTT6=
EXTT7=
EXTT8=
EXTT9=
PLAYORDER=
